<svg width="26" height="24" viewBox="0 0 26 24" fill="none" xmlns="http://www.w3.org/2000/svg">
<path d="M23.3519 5.76H18.4869C18.4869 4.23235 17.8718 2.76727 16.777 1.68706C15.6822 0.606855 14.1973 0 12.6489 0C11.1006 0 9.61569 0.606855 8.52086 1.68706C7.42603 2.76727 6.81096 4.23235 6.81096 5.76H1.94599C1.42988 5.76 0.934911 5.96229 0.569967 6.32236C0.205023 6.68243 0 7.17078 0 7.68V22.08C0 22.5892 0.205023 23.0776 0.569967 23.4376C0.934911 23.7977 1.42988 24 1.94599 24H23.3519C23.868 24 24.3629 23.7977 24.7279 23.4376C25.0928 23.0776 25.2979 22.5892 25.2979 22.08V7.68C25.2979 7.17078 25.0928 6.68243 24.7279 6.32236C24.3629 5.96229 23.868 5.76 23.3519 5.76ZM12.6489 1.92C13.6811 1.92 14.6711 2.32457 15.401 3.04471C16.1309 3.76485 16.5409 4.74157 16.5409 5.76H8.75695C8.75695 4.74157 9.167 3.76485 9.89688 3.04471C10.6268 2.32457 11.6167 1.92 12.6489 1.92ZM23.3519 22.08H1.94599V7.68H6.81096V9.6C6.81096 9.85461 6.91347 10.0988 7.09594 10.2788C7.27842 10.4589 7.5259 10.56 7.78396 10.56C8.04201 10.56 8.28949 10.4589 8.47197 10.2788C8.65444 10.0988 8.75695 9.85461 8.75695 9.6V7.68H16.5409V9.6C16.5409 9.85461 16.6434 10.0988 16.8259 10.2788C17.0084 10.4589 17.2558 10.56 17.5139 10.56C17.772 10.56 18.0194 10.4589 18.2019 10.2788C18.3844 10.0988 18.4869 9.85461 18.4869 9.6V7.68H23.3519V22.08Z" fill="white"/>
</svg>
