<svg width="21" height="25" viewBox="0 0 21 25" fill="none" xmlns="http://www.w3.org/2000/svg">
<mask id="path-1-inside-1_158_14" fill="white">
<path fill-rule="evenodd" clip-rule="evenodd" d="M10.1191 0C8.66225 0 7.26503 0.581913 6.23485 1.61772C5.20468 2.65354 4.62593 4.0584 4.62593 5.52326C4.62593 6.98811 5.20468 8.39298 6.23485 9.42879C7.26503 10.4646 8.66225 11.0465 10.1191 11.0465C11.576 11.0465 12.9733 10.4646 14.0034 9.42879C15.0336 8.39298 15.6124 6.98811 15.6124 5.52326C15.6124 4.0584 15.0336 2.65354 14.0034 1.61772C12.9733 0.581913 11.576 0 10.1191 0ZM6.36063 5.52326C6.36063 4.52098 6.75661 3.55976 7.46147 2.85105C8.16633 2.14234 9.12232 1.74419 10.1191 1.74419C11.116 1.74419 12.072 2.14234 12.7768 2.85105C13.4817 3.55976 13.8777 4.52098 13.8777 5.52326C13.8777 6.52553 13.4817 7.48675 12.7768 8.19546C12.072 8.90417 11.116 9.30233 10.1191 9.30233C9.12232 9.30233 8.16633 8.90417 7.46147 8.19546C6.75661 7.48675 6.36063 6.52553 6.36063 5.52326ZM10.1191 12.7907C7.44424 12.7907 4.97865 13.4023 3.15259 14.4349C1.35313 15.4535 6.46486e-05 16.9953 6.46486e-05 18.8953V19.014C-0.00109182 20.3651 -0.00224841 22.0605 1.47687 23.2721C2.20429 23.8674 3.22313 24.2919 4.59933 24.5709C5.97784 24.8523 7.77614 25 10.1191 25C12.4621 25 14.2593 24.8523 15.6401 24.5709C17.0163 24.2919 18.034 23.8674 18.7626 23.2721C20.2417 22.0605 20.2394 20.3651 20.2382 19.014V18.8953C20.2382 16.9953 18.8852 15.4535 17.0868 14.4349C15.2596 13.4023 12.7952 12.7907 10.1191 12.7907ZM1.73476 18.8953C1.73476 17.9058 2.45408 16.8314 4.00259 15.9558C5.5245 15.0953 7.68478 14.5349 10.1203 14.5349C12.5535 14.5349 14.7138 15.0953 16.2357 15.9558C17.7854 16.8314 18.5035 17.9058 18.5035 18.8953C18.5035 20.4163 18.4573 21.2721 17.6662 21.9186C17.2383 22.2698 16.5213 22.6128 15.2955 22.8616C14.0731 23.1105 12.402 23.2558 10.1191 23.2558C7.83628 23.2558 6.16403 23.1105 4.9428 22.8616C3.71695 22.6128 2.99994 22.2698 2.57204 21.9198C1.78102 21.2721 1.73476 20.4163 1.73476 18.8953Z"/>
</mask>
<path fill-rule="evenodd" clip-rule="evenodd" d="M10.1191 0C8.66225 0 7.26503 0.581913 6.23485 1.61772C5.20468 2.65354 4.62593 4.0584 4.62593 5.52326C4.62593 6.98811 5.20468 8.39298 6.23485 9.42879C7.26503 10.4646 8.66225 11.0465 10.1191 11.0465C11.576 11.0465 12.9733 10.4646 14.0034 9.42879C15.0336 8.39298 15.6124 6.98811 15.6124 5.52326C15.6124 4.0584 15.0336 2.65354 14.0034 1.61772C12.9733 0.581913 11.576 0 10.1191 0ZM6.36063 5.52326C6.36063 4.52098 6.75661 3.55976 7.46147 2.85105C8.16633 2.14234 9.12232 1.74419 10.1191 1.74419C11.116 1.74419 12.072 2.14234 12.7768 2.85105C13.4817 3.55976 13.8777 4.52098 13.8777 5.52326C13.8777 6.52553 13.4817 7.48675 12.7768 8.19546C12.072 8.90417 11.116 9.30233 10.1191 9.30233C9.12232 9.30233 8.16633 8.90417 7.46147 8.19546C6.75661 7.48675 6.36063 6.52553 6.36063 5.52326ZM10.1191 12.7907C7.44424 12.7907 4.97865 13.4023 3.15259 14.4349C1.35313 15.4535 6.46486e-05 16.9953 6.46486e-05 18.8953V19.014C-0.00109182 20.3651 -0.00224841 22.0605 1.47687 23.2721C2.20429 23.8674 3.22313 24.2919 4.59933 24.5709C5.97784 24.8523 7.77614 25 10.1191 25C12.4621 25 14.2593 24.8523 15.6401 24.5709C17.0163 24.2919 18.034 23.8674 18.7626 23.2721C20.2417 22.0605 20.2394 20.3651 20.2382 19.014V18.8953C20.2382 16.9953 18.8852 15.4535 17.0868 14.4349C15.2596 13.4023 12.7952 12.7907 10.1191 12.7907ZM1.73476 18.8953C1.73476 17.9058 2.45408 16.8314 4.00259 15.9558C5.5245 15.0953 7.68478 14.5349 10.1203 14.5349C12.5535 14.5349 14.7138 15.0953 16.2357 15.9558C17.7854 16.8314 18.5035 17.9058 18.5035 18.8953C18.5035 20.4163 18.4573 21.2721 17.6662 21.9186C17.2383 22.2698 16.5213 22.6128 15.2955 22.8616C14.0731 23.1105 12.402 23.2558 10.1191 23.2558C7.83628 23.2558 6.16403 23.1105 4.9428 22.8616C3.71695 22.6128 2.99994 22.2698 2.57204 21.9198C1.78102 21.2721 1.73476 20.4163 1.73476 18.8953Z" stroke="black" strokeWidth="2" mask="url(#path-1-inside-1_158_14)"/>
</svg>
