<svg width="22" height="19" viewBox="0 0 22 19" fill="none" xmlns="http://www.w3.org/2000/svg">
<path d="M19.937 16.6929H2.06297C0.921782 16.6929 0.000579834 15.8366 0.000579834 14.7759V3.27414C0.000579834 2.21342 0.921782 1.35718 2.06297 1.35718H19.937C21.0782 1.35718 21.9994 2.21342 21.9994 3.27414V14.7759C21.9994 15.8366 21.0782 16.6929 19.937 16.6929ZM2.06297 2.63515C1.67799 2.63515 1.37551 2.91631 1.37551 3.27414V14.7759C1.37551 15.1338 1.67799 15.4149 2.06297 15.4149H19.937C20.322 15.4149 20.6245 15.1338 20.6245 14.7759V3.27414C20.6245 2.91631 20.322 2.63515 19.937 2.63515H2.06297Z" fill="#CA7520"/>
<path d="M11 11.2113C10.0375 11.2113 9.15759 10.8681 8.49762 10.243L1.27925 3.40371C1.01801 3.15857 1.03176 2.76635 1.30674 2.53348C1.58173 2.3006 2.02171 2.31285 2.28294 2.55799L9.50132 9.39729C10.285 10.145 11.715 10.145 12.4987 9.39729L19.717 2.57025C19.9783 2.32511 20.4183 2.31285 20.6932 2.54573C20.9682 2.77861 20.982 3.17083 20.7207 3.41597L13.5024 10.2553C12.8424 10.8804 11.9624 11.2236 11 11.2236V11.2113Z" fill="#CA7520"/>
</svg>
