<svg width="21" height="20" viewBox="0 0 21 20" fill="none" xmlns="http://www.w3.org/2000/svg">
<path d="M11.55 17.938C13.6682 17.6813 15.6042 16.6661 16.9647 15.0988C18.3251 13.5314 19.0079 11.5295 18.8741 9.49997C18.7404 7.47041 17.8003 5.56549 16.2448 4.17238C14.6893 2.77927 12.6352 2.00252 10.5 2C8.36216 1.99848 6.30415 2.77334 4.74531 4.16668C3.18647 5.56002 2.2441 7.46699 2.11023 9.49904C1.97636 11.5311 2.66105 13.5353 4.0248 15.1033C5.38855 16.6712 7.32872 17.685 9.45 17.938V12H7.35V10H9.45V8.346C9.45 7.009 9.597 6.524 9.87 6.035C10.1389 5.55115 10.5545 5.15564 11.0628 4.9C11.4639 4.695 11.9626 4.572 12.8341 4.519C13.1796 4.498 13.6269 4.524 14.176 4.599V6.499H13.651C12.6882 6.499 12.2902 6.542 12.0529 6.663C11.9114 6.73241 11.7961 6.84219 11.7233 6.977C11.5972 7.203 11.551 7.427 11.551 8.345V10H14.176L13.651 12H11.551L11.55 17.938ZM10.5 20C4.70085 20 0 15.523 0 10C0 4.477 4.70085 0 10.5 0C16.2991 0 21 4.477 21 10C21 15.523 16.2991 20 10.5 20Z" fill="#CA7520"/>
</svg>
