<svg width="20" height="19" viewBox="0 0 20 19" fill="none" xmlns="http://www.w3.org/2000/svg">
<path d="M15.34 3.287C15.1027 3.287 14.8707 3.35386 14.6733 3.47912C14.476 3.60439 14.3222 3.78243 14.2313 3.99074C14.1405 4.19905 14.1168 4.42826 14.1631 4.6494C14.2094 4.87054 14.3236 5.07367 14.4915 5.2331C14.6593 5.39253 14.8731 5.50111 15.1059 5.5451C15.3387 5.58908 15.5799 5.56651 15.7992 5.48022C16.0185 5.39394 16.2059 5.24782 16.3378 5.06035C16.4696 4.87288 16.54 4.65247 16.54 4.427C16.54 4.12465 16.4136 3.83469 16.1885 3.6209C15.9635 3.40711 15.6583 3.287 15.34 3.287ZM19.94 5.586C19.9206 4.79778 19.7652 4.01793 19.48 3.2775C19.2257 2.64398 18.83 2.07031 18.32 1.596C17.8248 1.10905 17.2196 0.735468 16.55 0.5035C15.7727 0.224353 14.9508 0.0733495 14.12 0.0569999C13.06 -5.30854e-08 12.72 0 10 0C7.28 0 6.94 -5.30854e-08 5.88 0.0569999C5.04915 0.0733495 4.22734 0.224353 3.45 0.5035C2.78168 0.737816 2.17693 1.11108 1.68 1.596C1.16743 2.06642 0.774176 2.64142 0.53 3.2775C0.236161 4.01598 0.07721 4.79669 0.0599999 5.586C-5.58794e-08 6.593 0 6.916 0 9.5C0 12.084 -5.58794e-08 12.407 0.0599999 13.414C0.07721 14.2033 0.236161 14.984 0.53 15.7225C0.774176 16.3586 1.16743 16.9336 1.68 17.404C2.17693 17.8889 2.78168 18.2622 3.45 18.4965C4.22734 18.7756 5.04915 18.9267 5.88 18.943C6.94 19 7.28 19 10 19C12.72 19 13.06 19 14.12 18.943C14.9508 18.9267 15.7727 18.7756 16.55 18.4965C17.2196 18.2645 17.8248 17.8909 18.32 17.404C18.8322 16.9315 19.2283 16.3573 19.48 15.7225C19.7652 14.9821 19.9206 14.2022 19.94 13.414C19.94 12.407 20 12.084 20 9.5C20 6.916 20 6.593 19.94 5.586ZM18.14 13.3C18.1327 13.903 18.0178 14.5005 17.8 15.067C17.6403 15.4804 17.3839 15.854 17.05 16.1595C16.7256 16.4735 16.3332 16.7166 15.9 16.872C15.3037 17.0789 14.6748 17.1881 14.04 17.195C13.04 17.2425 12.67 17.252 10.04 17.252C7.41 17.252 7.04 17.252 6.04 17.195C5.38089 17.2067 4.72459 17.1103 4.1 16.91C3.68578 16.7467 3.31136 16.5041 3 16.1975C2.66809 15.8923 2.41484 15.5184 2.26 15.105C2.01586 14.5304 1.88044 13.9193 1.86 13.3C1.86 12.35 1.8 11.9985 1.8 9.5C1.8 7.0015 1.8 6.65 1.86 5.7C1.86448 5.0835 1.98295 4.47255 2.21 3.895C2.38605 3.49402 2.65626 3.13658 3 2.85C3.30381 2.52336 3.67929 2.26394 4.1 2.09C4.70955 1.88104 5.352 1.77183 6 1.767C7 1.767 7.37 1.71 10 1.71C12.63 1.71 13 1.71 14 1.767C14.6348 1.77392 15.2637 1.88313 15.86 2.09C16.3144 2.25022 16.7223 2.5107 17.05 2.85C17.3777 3.14182 17.6338 3.4986 17.8 3.895C18.0223 4.47349 18.1373 5.08419 18.14 5.7C18.19 6.65 18.2 7.0015 18.2 9.5C18.2 11.9985 18.19 12.35 18.14 13.3ZM10 4.6265C8.98581 4.62838 7.99496 4.9158 7.15265 5.45245C6.31035 5.98909 5.65438 6.75089 5.26763 7.64157C4.88089 8.53225 4.78072 9.51184 4.97979 10.4566C5.17886 11.4013 5.66824 12.2688 6.38608 12.9494C7.10392 13.6301 8.01801 14.0933 9.01286 14.2805C10.0077 14.4678 11.0387 14.3708 11.9755 14.0016C12.9123 13.6325 13.7129 13.0078 14.2761 12.2066C14.8394 11.4053 15.14 10.4635 15.14 9.5C15.1413 8.85885 15.0092 8.22378 14.7512 7.63131C14.4933 7.03884 14.1146 6.50067 13.6369 6.04775C13.1592 5.59483 12.5919 5.23609 11.9678 4.99218C11.3436 4.74827 10.6749 4.62399 10 4.6265ZM10 12.6635C9.34139 12.6635 8.69757 12.478 8.14995 12.1304C7.60234 11.7827 7.17552 11.2887 6.92348 10.7106C6.67144 10.1326 6.6055 9.49649 6.73398 8.88283C6.86247 8.26917 7.17963 7.70549 7.64533 7.26307C8.11104 6.82064 8.70439 6.51935 9.35035 6.39729C9.99631 6.27522 10.6659 6.33787 11.2743 6.57731C11.8828 6.81674 12.4029 7.22222 12.7688 7.74245C13.1347 8.26269 13.33 8.87432 13.33 9.5C13.33 9.91544 13.2439 10.3268 13.0765 10.7106C12.9092 11.0944 12.6639 11.4432 12.3547 11.7369C12.0454 12.0307 11.6784 12.2637 11.2743 12.4227C10.8703 12.5817 10.4373 12.6635 10 12.6635Z" fill="#CA7520"/>
</svg>
