<svg width="20" height="17" viewBox="0 0 20 17" fill="none" xmlns="http://www.w3.org/2000/svg">
<path d="M19.9939 1.18786C19.9938 1.02757 19.9513 0.870149 19.8707 0.731579C19.7901 0.593008 19.6742 0.47823 19.5348 0.398903C19.3954 0.319577 19.2375 0.278529 19.0771 0.279928C18.9167 0.281328 18.7595 0.325126 18.6215 0.406873C18.0893 0.723638 17.5163 0.966235 16.9184 1.12793C16.0649 0.396225 14.9765 -0.00413586 13.8519 3.22195e-05C12.6184 0.00150931 11.4337 0.481913 10.548 1.33981C9.66233 2.19771 9.14494 3.36595 9.1051 4.59788C6.67287 4.2104 4.46846 2.94194 2.91229 1.03439C2.81852 0.920847 2.69883 0.831473 2.56329 0.77379C2.42774 0.716107 2.28032 0.691803 2.13341 0.702923C1.98655 0.715069 1.84484 0.762756 1.72054 0.841865C1.59625 0.920974 1.49309 1.02913 1.41998 1.15699C1.0451 1.81074 0.829816 2.54363 0.791601 3.29613C0.753386 4.04863 0.89332 4.79953 1.20004 5.48784L1.19822 5.48875C1.06006 5.57358 0.946046 5.69246 0.867108 5.834C0.78817 5.97553 0.746962 6.13496 0.747439 6.29699C0.74598 6.43029 0.754181 6.56353 0.771977 6.69565C0.86479 7.83812 1.37148 8.90753 2.19703 9.70337C2.14101 9.81009 2.10685 9.92689 2.09655 10.047C2.08625 10.167 2.10002 10.2879 2.13705 10.4026C2.49693 11.5234 3.26242 12.4696 4.28372 13.0562C3.24598 13.4571 2.12551 13.5968 1.021 13.463C0.816666 13.4376 0.609762 13.4823 0.43417 13.5898C0.258579 13.6972 0.12471 13.8611 0.0544868 14.0545C-0.0157359 14.2479 -0.0181494 14.4594 0.0476417 14.6544C0.113433 14.8493 0.243529 15.0162 0.416622 15.1276C2.31628 16.35 4.52809 16.9998 6.78756 16.9993C9.34979 17.0281 11.8497 16.21 13.8985 14.6723C15.9473 13.1345 17.4301 10.9634 18.1162 8.49647C18.437 7.42194 18.6008 6.30675 18.6024 5.18544L18.6015 5.00381C19.0761 4.49236 19.4437 3.89138 19.6828 3.23612C19.9219 2.58086 20.0276 1.8845 19.9939 1.18786ZM16.9893 4.10477C16.839 4.28205 16.7628 4.51035 16.7766 4.74227C16.7857 4.89211 16.7848 5.04286 16.7848 5.18544C16.7828 6.13278 16.6439 7.07486 16.3722 7.98247C15.812 10.0817 14.563 11.9324 12.8252 13.2381C11.0874 14.5438 8.96137 15.229 6.78756 15.1839C6.00699 15.184 5.22912 15.0923 4.47003 14.9106C5.43822 14.5986 6.34347 14.1177 7.14383 13.4903C7.29141 13.3743 7.39944 13.2156 7.45307 13.0358C7.5067 12.856 7.5033 12.6641 7.44334 12.4863C7.38337 12.3085 7.26979 12.1537 7.11819 12.043C6.96659 11.9324 6.78442 11.8714 6.59671 11.8683C5.84122 11.8565 5.11982 11.5521 4.58455 11.0192C4.72026 10.9938 4.85508 10.962 4.98898 10.9239C5.18531 10.8681 5.35714 10.7479 5.47678 10.5827C5.59643 10.4175 5.65693 10.2168 5.64853 10.013C5.64013 9.80924 5.56333 9.61422 5.4305 9.45937C5.29766 9.30452 5.11653 9.19885 4.91627 9.1594C4.47775 9.07285 4.06511 8.8864 3.71045 8.61455C3.35579 8.3427 3.06866 7.99277 2.87139 7.59197C3.03566 7.61441 3.20099 7.62835 3.3667 7.63375C3.56363 7.63699 3.75648 7.57747 3.91727 7.46382C4.07807 7.35017 4.19846 7.18831 4.261 7.00169C4.32103 6.8135 4.31801 6.61087 4.25241 6.42454C4.18681 6.23821 4.0622 6.07834 3.89747 5.96915C3.49752 5.70313 3.16986 5.34213 2.94383 4.91849C2.71781 4.49485 2.60049 4.0218 2.60237 3.54173C2.60237 3.48179 2.60419 3.42095 2.60783 3.36192C4.64495 5.26048 7.28734 6.37964 10.0694 6.5222C10.2098 6.52753 10.3497 6.50086 10.4783 6.44423C10.607 6.38759 10.721 6.30246 10.8119 6.19527C10.9019 6.08743 10.9656 5.96021 10.9981 5.82359C11.0306 5.68698 11.0309 5.5447 10.9991 5.40793C10.9471 5.19108 10.9205 4.9689 10.92 4.7459C10.921 3.96922 11.2302 3.22462 11.7798 2.67541C12.3295 2.12621 13.0747 1.81725 13.8519 1.81629C14.252 1.81511 14.6479 1.89681 15.0147 2.05624C15.3815 2.21568 15.7113 2.44937 15.9832 2.74258C16.088 2.85529 16.2199 2.93934 16.3665 2.9867C16.513 3.03407 16.6692 3.04319 16.8202 3.0132C17.1936 2.94068 17.5616 2.84299 17.9217 2.72078C17.6762 3.22281 17.3624 3.68855 16.9893 4.10477Z" fill="#CA7520"/>
</svg>
